#!OML:ASF F:\VICON\USERDATA\INSTALL\rory3\rory3.ASF
:FULLY-SPECIFIED
:DEGREES
1348
root -1.21572 15.6841 -2.34381 -18.9087 44.3292 -720.641
lowerback 16.6219 1.40603 -8.05729
upperback 10.2466 1.09447 -0.271106
thorax 1.58598 0.323707 4.09319
lowerneck -13.4261 -10.976 -17.1943
upperneck 20.5937 -14.2592 12.4065
head 11.0567 -6.65127 5.15925
rclavicle -3.12092e-014 7.15625e-015
rhumerus -31.3365 16.1928 -95.4578
rradius 73.6179
rwrist 30.8561
rhand -32.0107 10.1374
rfingers 7.12502
rthumb -5.25906 -19.7773
lclavicle -3.12092e-014 7.15625e-015
lhumerus -31.6596 -9.67619 88.1388
lradius 85.9232
lwrist -29.3704
lhand -33.8162 12.479
lfingers 7.12502
lthumb -7.00219 42.3432
rfemur -40.0255 -13.5896 22.9701
rtibia 102.32
rfoot -7.46461 -5.34093
rtoes 1.2654
lfemur -69.9324 58.109 -13.4938
ltibia 139.791
lfoot -10.4141 -7.17519
ltoes 7.34898
1349
root -1.21965 15.6888 -2.33315 -18.9023 44.2926 -720.678
lowerback 16.4138 1.44126 -8.13459
upperback 10.2736 1.15127 -0.253716
thorax 1.71685 0.342024 4.14921
lowerneck -13.4828 -10.9591 -17.0108
upperneck 20.6617 -14.2594 12.3435
head 11.0714 -6.64086 5.10612
rclavicle -5.9536e-014 1.03368e-014
rhumerus -31.6534 16.0998 -95.4964
rradius 73.6013
rwrist 31.3484
rhand -33.1295 10.0608
rfingers 7.12502
rthumb -6.33925 -19.8244
lclavicle -5.9536e-014 1.03368e-014
lhumerus -31.7217 -9.73292 88.1974
lradius 86.0011
lwrist -31.4097
lhand -34.0324 13.4541
lfingers 7.12502
lthumb -7.21081 43.3113
rfemur -39.9769 -13.5918 23.1554
rtibia 102.289
rfoot -8.5086 -5.30529
rtoes -0.222111
lfemur -69.7643 58.421 -13.1586
ltibia 139.786
lfoot -10.5066 -7.57763
ltoes 7.71652
1350
root -1.22349 15.693 -2.32434 -18.9456 44.3704 -720.788
lowerback 16.2357 1.41567 -8.18343
upperback 10.3022 1.12998 -0.226344
thorax 1.84376 0.322241 4.21137
lowerneck -13.5877 -10.9056 -16.853
upperneck 20.7478 -14.1993 12.2956
head 11.0955 -6.60148 5.07254
rclavicle 9.83984e-015 5.56597e-015
rhumerus -31.9313 15.8765 -95.4974
rradius 73.7026
rwrist 31.8893
rhand -33.951 10.2352
rfingers 7.12502
rthumb -7.13226 -19.6246
lclavicle 9.83984e-015 5.56597e-015
lhumerus -31.7462 -9.62143 88.2823
lradius 86.2344
lwrist -32.248
lhand -33.7548 13.9078
lfingers 7.12502
lthumb -6.94283 43.774
rfemur -39.9425 -13.7338 23.344
rtibia 102.248
rfoot -9.4682 -5.31826
rtoes -1.17193
lfemur -69.7303 58.5602 -12.9913
ltibia 139.777
lfoot -10.6064 -7.81131
ltoes 8.23163
1351
root -1.22902 15.6959 -2.32404 -18.8836 44.4714 -720.679
lowerback 16.2378 1.39229 -8.36866
upperback 10.2963 1.07505 -0.235403
thorax 1.84612 0.286149 4.31407
lowerneck -13.5207 -10.8557 -16.8852
upperneck 20.6903 -14.1529 12.4002
head 11.0652 -6.57551 5.12751
rclavicle 3.55825e-014 -1.03368e-014
rhumerus -32.202 15.6969 -95.4436
rradius 73.9093
rwrist 32.0295
rhand -34.7086 10.4163
rfingers 7.12502
rthumb -7.86357 -19.4174
lclavicle 3.55825e-014 -1.03368e-014
lhumerus -31.8171 -9.41802 88.3661
lradius 86.5753
lwrist -32.32
lhand -33.257 14.1478
lfingers 7.12502
lthumb -6.46234 44.0292
rfemur -39.9573 -13.8845 23.2945
rtibia 102.254
rfoot -10.2511 -5.22103
rtoes -0.540455
lfemur -69.7296 58.515 -13.1676
ltibia 139.727
lfoot -10.6414 -7.88169
ltoes 8.52984
1352
root -1.23357 15.6958 -2.32677 -18.9779 44.4544 -720.69
lowerback 16.3377 1.40849 -8.3718
upperback 10.2953 1.08679 -0.232988
thorax 1.79156 0.294397 4.31557
lowerneck -13.4029 -10.8675 -16.9881
upperneck 20.6671 -14.2046 12.5625
head 11.0658 -6.59549 5.19924
rclavicle -7.35503e-014 4.05521e-014
rhumerus -32.4366 15.4311 -95.3279
rradius 74.2242
rwrist 31.8518
rhand -35.2184 10.4145
rfingers 7.12502
rthumb -8.35559 -19.4003
lclavicle -7.35503e-014 4.05521e-014
lhumerus -31.9024 -9.33349 88.4606
lradius 86.953
lwrist -31.6082
lhand -32.6672 14.2935
lfingers 7.12502
lthumb -5.89289 44.1915
rfemur -39.8763 -13.9283 23.3535
rtibia 102.234
rfoot -11.0753 -5.18493
rtoes 1.01011
lfemur -69.6395 58.6071 -13.0696
ltibia 139.712
lfoot -10.6946 -8.04186
ltoes 8.09763
1353
root -1.23791 15.6908 -2.32633 -19.3414 44.3824 -720.999
lowerback 16.4764 1.42576 -8.19296
upperback 10.3052 1.12104 -0.165724
thorax 1.72254 0.320777 4.27987
lowerneck -13.1521 -10.9167 -17.0733
upperneck 20.6129 -14.3326 12.7258
head 11.0412 -6.65441 5.25897
rclavicle -8.26944e-014 1.19271e-014
rhumerus -32.7315 15.0058 -95.2062
rradius 74.6627
rwrist 31.7563
rhand -35.5024 10.2451
rfingers 7.12502
rthumb -8.62966 -19.5585
lclavicle -8.26944e-014 1.19271e-014
lhumerus -31.955 -9.29316 88.5228
lradius 87.3055
lwrist -30.3473
lhand -31.8968 14.2935
lfingers 7.12502
lthumb -5.14905 44.2109
rfemur -39.6874 -13.9719 23.6757
rtibia 102.199
rfoot -12.0643 -5.18885
rtoes 1.80302
lfemur -69.4889 58.8709 -12.5163
ltibia 139.759
lfoot -10.7485 -8.30231
ltoes 7.54274
1354
root -1.24217 15.6903 -2.32526 -19.595 44.3485 -721.192
lowerback 16.5599 1.43496 -8.16779
upperback 10.3064 1.12894 -0.0907755
thorax 1.67808 0.325266 4.34341
lowerneck -12.9313 -10.9197 -17.1275
upperneck 20.5659 -14.3702 12.7851
head 10.9978 -6.67916 5.29091
rclavicle -7.25564e-015 2.8625e-014
rhumerus -33.0024 14.6174 -95.0368
rradius 75.0305
rwrist 31.3956
rhand -35.7667 10.2894
rfingers 7.12502
rthumb -8.88469 -19.5036
lclavicle -7.25564e-015 2.8625e-014
lhumerus -31.9654 -9.11064 88.5845
lradius 87.5255
lwrist -28.908
lhand -31.2637 14.1828
lfingers 7.12502
lthumb -4.53774 44.1142
rfemur -39.5098 -14.0548 23.9192
rtibia 102.166
rfoot -13.0399 -5.16379
rtoes 1.10569
lfemur -69.2678 59.0669 -12.0445
ltibia 139.751
lfoot -10.8339 -8.49699
ltoes 7.16604
1355
root -1.24657 15.697 -2.32614 -19.7242 44.3419 -721.256
lowerback 16.6029 1.43929 -8.22151
upperback 10.2882 1.12189 -0.0614587
thorax 1.63707 0.320086 4.40541
lowerneck -12.8326 -10.8466 -17.1165
upperneck 20.6397 -14.2896 12.7814
head 10.9907 -6.64564 5.30883
rclavicle 9.99887e-014 -1.19271e-014
rhumerus -33.2129 14.3279 -94.8742
rradius 75.292
rwrist 30.611
rhand -36.0964 10.2108
rfingers 7.12502
rthumb -9.2028 -19.5684
lclavicle 9.99887e-014 -1.19271e-014
lhumerus -32.0395 -8.95092 88.5784
lradius 87.6953
lwrist -27.507
lhand -30.8608 13.9826
lfingers 7.12502
lthumb -4.14874 43.9219
rfemur -39.382 -14.0933 24.0308
rtibia 102.116
rfoot -13.7623 -5.0776
rtoes 1.09765
lfemur -68.9842 59.1218 -11.7448
ltibia 139.667
lfoot -10.9484 -8.56811
ltoes 6.67646
1356
root -1.25006 15.7011 -2.32661 -19.8551 44.3612 -721.357
lowerback 16.6043 1.42795 -8.22992
upperback 10.2822 1.10522 -0.031571
thorax 1.63188 0.310516 4.44452
lowerneck -12.6936 -10.7904 -17.1234
upperneck 20.6702 -14.2295 12.7719
head 10.9645 -6.62533 5.32417
rclavicle 1.26228e-014 1.35174e-014
rhumerus -33.4295 14.041 -94.7095
rradius 75.5794
rwrist 29.8002
rhand -36.5594 9.83992
rfingers 7.12502
rthumb -9.64953 -19.9191
lclavicle 1.26228e-014 1.35174e-014
lhumerus -32.0968 -8.86175 88.5537
lradius 87.7839
lwrist -26.1429
lhand -30.6458 13.6686
lfingers 7.12502
lthumb -3.94115 43.6119
rfemur -39.2843 -14.1694 24.1439
rtibia 102.077
rfoot -14.3235 -4.90987
rtoes 1.77455
lfemur -68.8492 59.0573 -11.5508
ltibia 139.624
lfoot -11.0884 -8.54292
ltoes 5.81716
1357
root -1.25281 15.6988 -2.32753 -20.119 44.2793 -721.729
lowerback 16.5438 1.38453 -8.03106
upperback 10.3099 1.08153 0.0619117
thorax 1.693 0.301366 4.4365
lowerneck -12.7732 -10.7606 -17.0562
upperneck 20.7702 -14.1586 12.618
head 10.9854 -6.59928 5.26778
rclavicle 2.82274e-014 -9.54166e-015
rhumerus -33.5694 13.7705 -94.491
rradius 75.8612
rwrist 28.9922
rhand -36.8372 9.45829
rfingers 7.12502
rthumb -9.91756 -20.2881
lclavicle 2.82274e-014 -9.54166e-015
lhumerus -31.993 -8.71082 88.5567
lradius 87.833
lwrist -24.8929
lhand -30.8838 14.2593
lfingers 7.12502
lthumb -4.17097 44.1983
rfemur -39.2592 -14.1751 24.5431
rtibia 102.043
rfoot -14.8889 -4.75828
rtoes 2.03893
lfemur -68.9609 59.219 -11.1765
ltibia 139.675
lfoot -11.1242 -8.6191
ltoes 5.47118
